<svg width="25" height="25" viewBox="0 0 25 25" fill="none" xmlns="http://www.w3.org/2000/svg">
<path d="M17.5644 6.3833C17.3929 6.09001 17.2601 5.72754 17.166 5.2959C17.0774 4.85872 17.0304 4.39388 17.0249 3.90137C17.0193 3.40332 17.0525 2.91634 17.1245 2.44043C17.2019 1.96452 17.3182 1.53841 17.4731 1.16211C17.6281 0.785807 17.8217 0.498047 18.0542 0.298828C18.2866 0.0996094 18.5577 0.0304362 18.8676 0.0913086C19.172 0.157715 19.3878 0.329264 19.5151 0.605957C19.6479 0.88265 19.7088 1.22575 19.6977 1.63525C19.6922 2.03923 19.6285 2.47363 19.5068 2.93848C19.3851 3.40332 19.2246 3.86263 19.0254 4.31641C18.8261 4.76465 18.5992 5.17139 18.3447 5.53662C18.0957 5.90186 17.8356 6.18408 17.5644 6.3833ZM17.7636 6.70703C17.7747 6.35286 17.8549 5.95996 18.0044 5.52832C18.1593 5.09115 18.3641 4.64844 18.6186 4.2002C18.8787 3.74642 19.172 3.30924 19.4985 2.88867C19.825 2.4681 20.1681 2.0918 20.5278 1.75977C20.8875 1.4222 21.2444 1.15658 21.5986 0.962891C21.9583 0.763672 22.2959 0.661296 22.6113 0.655762C22.9323 0.650228 23.2117 0.766439 23.4497 1.00439C23.6932 1.24788 23.8121 1.53011 23.8066 1.85107C23.8011 2.17204 23.6987 2.51237 23.4995 2.87207C23.3058 3.22624 23.0402 3.58317 22.7026 3.94287C22.3706 4.30257 21.9943 4.64567 21.5737 4.97217C21.1531 5.29867 20.7159 5.59196 20.2622 5.85205C19.8139 6.10661 19.374 6.31136 18.9423 6.46631C18.5107 6.61572 18.1178 6.69596 17.7636 6.70703ZM18.0957 6.89795C18.2893 6.63232 18.5688 6.375 18.934 6.12598C19.2993 5.87142 19.706 5.64453 20.1543 5.44531C20.608 5.24609 21.0673 5.08838 21.5322 4.97217C22.0026 4.85042 22.4397 4.78402 22.8437 4.77295C23.2532 4.76188 23.5963 4.82552 23.873 4.96387C24.1497 5.09668 24.3213 5.31527 24.3877 5.61963C24.4485 5.92952 24.3794 6.20068 24.1801 6.43311C23.9809 6.65999 23.6904 6.85091 23.3086 7.00586C22.9323 7.16081 22.5061 7.27425 22.0302 7.34619C21.5543 7.41813 21.0673 7.45133 20.5693 7.4458C20.0768 7.44027 19.6119 7.39323 19.1748 7.30469C18.7431 7.21061 18.3834 7.07503 18.0957 6.89795ZM0.680626 23.7402C0.387332 23.4469 0.199181 23.1011 0.116173 22.7026C0.0386988 22.3042 0.141075 21.8809 0.423302 21.4326L8.05172 9.32178L9.81979 11.0068C9.94706 11.1341 10.0909 11.195 10.2514 11.1895C10.4119 11.1839 10.553 11.123 10.6748 11.0068C10.7965 10.8851 10.8574 10.7412 10.8574 10.5752C10.8574 10.4092 10.7937 10.2625 10.6665 10.1353L8.70748 8.25098L9.42965 7.11377L12.0693 9.64551C12.2021 9.77279 12.3515 9.83366 12.5175 9.82812C12.6836 9.81706 12.8247 9.75065 12.9409 9.62891C13.0571 9.50716 13.1124 9.36605 13.1069 9.20557C13.1069 9.04508 13.0433 8.9012 12.916 8.77393L10.185 6.13428C10.7384 5.48128 11.3361 4.9777 11.978 4.62354C12.6255 4.26937 13.2867 4.06738 13.9619 4.01758C14.637 3.96777 15.3038 4.07845 15.9624 4.34961C16.6264 4.61523 17.2518 5.04688 17.8383 5.64453L18.7514 6.57422C19.4155 7.24382 19.8748 7.95492 20.1294 8.70752C20.3839 9.46012 20.442 10.2155 20.3037 10.9736C20.1653 11.7318 19.8361 12.4595 19.3159 13.1567C18.7957 13.854 18.0901 14.4821 17.1992 15.041L11.6377 18.5356L9.63717 16.6182C9.50989 16.4909 9.36324 16.43 9.19723 16.4355C9.03121 16.4411 8.8901 16.5047 8.77389 16.6265C8.65768 16.7482 8.59957 16.8921 8.59957 17.0581C8.59957 17.2186 8.66321 17.3625 8.79049 17.4897L10.5752 19.1997L9.40475 19.9302L7.94381 18.519C7.81653 18.3973 7.66988 18.3364 7.50387 18.3364C7.34339 18.342 7.20504 18.4056 7.08883 18.5273C6.96708 18.6491 6.90621 18.7902 6.90621 18.9507C6.90621 19.1167 6.97262 19.2633 7.10543 19.3906L8.35055 20.6025L2.95504 23.981C2.47913 24.2798 2.04749 24.3794 1.66012 24.2798C1.27275 24.1802 0.946251 24.0003 0.680626 23.7402Z" fill="currentColor"/>
</svg>
