<svg width="26" height="24" viewBox="0 0 26 24" fill="none" xmlns="http://www.w3.org/2000/svg">
<path d="M12.5564 23.2144C12.3958 23.2144 12.2031 23.1598 11.9782 23.0506C11.7598 22.9478 11.5542 22.829 11.3615 22.694C9.63975 21.5826 8.08184 20.4263 6.68775 19.2249C5.29367 18.03 4.09874 16.8029 3.10296 15.5437C2.10718 14.2781 1.33947 12.9933 0.799827 11.6891C0.266605 10.385 -5.98002e-06 9.0712 -5.98002e-06 7.74778C-5.98002e-06 6.60424 0.183088 5.56028 0.549277 4.6159C0.915465 3.6651 1.4262 2.84599 2.08149 2.15859C2.73677 1.46475 3.49485 0.931532 4.35571 0.55892C5.21657 0.186307 6.14489 3.1013e-07 7.14067 3.1013e-07C7.95656 3.1013e-07 8.705 0.144548 9.38598 0.433645C10.0734 0.716316 10.6837 1.11141 11.2169 1.61894C11.7501 2.12646 12.1966 2.7175 12.5564 3.39206C12.9226 2.7175 13.3691 2.12646 13.8959 1.61894C14.4291 1.11141 15.0362 0.716316 15.7172 0.433645C16.4046 0.144548 17.1562 3.1013e-07 17.9721 3.1013e-07C18.9679 3.1013e-07 19.8962 0.186307 20.7571 0.55892C21.618 0.931532 22.3728 1.46475 23.0217 2.15859C23.677 2.84599 24.1877 3.6651 24.5539 4.6159C24.9265 5.56028 25.1128 6.60424 25.1128 7.74778C25.1128 9.0712 24.843 10.385 24.3033 11.6891C23.7701 12.9933 23.0024 14.2781 22.0002 15.5437C21.0044 16.8029 19.8095 18.03 18.4154 19.2249C17.0278 20.4263 15.4763 21.5826 13.761 22.694C13.5618 22.829 13.353 22.9478 13.1346 23.0506C12.9162 23.1598 12.7234 23.2144 12.5564 23.2144Z" fill="currentColor"/>
</svg>
