<svg width="27" height="23" viewBox="0 0 27 23" fill="none" xmlns="http://www.w3.org/2000/svg">
<path d="M10.1103 20.9263H15.9541V14.7256C15.9541 14.4766 15.8794 14.2801 15.7299 14.1362C15.5861 13.9924 15.3924 13.9204 15.1489 13.9204H10.9238C10.6803 13.9204 10.4838 13.9924 10.3344 14.1362C10.185 14.2801 10.1103 14.4766 10.1103 14.7256V20.9263ZM3.41158 20.5278V12.1855L12.3515 4.68994C12.5618 4.51286 12.7832 4.42432 13.0156 4.42432C13.2535 4.41878 13.4832 4.50732 13.7045 4.68994L22.6445 12.2021V20.5278C22.6445 21.286 22.4176 21.8781 21.9638 22.3042C21.5156 22.7358 20.9013 22.9517 20.1211 22.9517H5.93502C5.15474 22.9517 4.53772 22.7358 4.08394 22.3042C3.6357 21.8781 3.41158 21.286 3.41158 20.5278ZM1.08736 11.7539C0.749795 11.7539 0.48417 11.6571 0.290485 11.4634C0.0968005 11.2642 -4.19617e-05 11.0262 -4.19617e-05 10.7495C-4.19617e-05 10.5946 0.0359281 10.4424 0.107868 10.293C0.179808 10.1436 0.284952 10.008 0.423298 9.88623L11.5048 0.597656C11.9752 0.199219 12.4816 0 13.0239 0C13.5773 0 14.0892 0.199219 14.5595 0.597656L25.6411 9.88623C25.7794 10.008 25.8846 10.1436 25.9565 10.293C26.0284 10.4424 26.0644 10.5946 26.0644 10.7495C26.0644 11.0262 25.9676 11.2642 25.7739 11.4634C25.5802 11.6571 25.3146 11.7539 24.977 11.7539C24.8165 11.7539 24.6643 11.7207 24.5205 11.6543C24.3821 11.5824 24.2493 11.491 24.122 11.3804L13.5302 2.49854C13.3697 2.36572 13.201 2.29932 13.0239 2.29932C12.8579 2.29932 12.6946 2.36572 12.5341 2.49854L1.94234 11.3804C1.81506 11.491 1.67948 11.5824 1.5356 11.6543C1.39172 11.7207 1.24231 11.7539 1.08736 11.7539ZM19.8222 5.63623V3.12109C19.8222 2.89421 19.8914 2.71436 20.0297 2.58154C20.1736 2.4432 20.359 2.37402 20.5859 2.37402H22.0883C22.3152 2.37402 22.4951 2.4432 22.6279 2.58154C22.7662 2.71436 22.8354 2.89421 22.8354 3.12109V8.15967L19.8222 5.63623Z" fill="currentColor"/>
</svg>
