<svg width="13" height="21" viewBox="0 0 13 21" fill="none" xmlns="http://www.w3.org/2000/svg">
<path d="M5.47848 14.4351C5.06344 14.4351 4.73971 14.3133 4.50729 14.0698C4.27486 13.8263 4.15865 13.5054 4.15865 13.1069C4.15865 13.0073 4.15865 12.9077 4.15865 12.8081C4.15865 12.7085 4.15865 12.6089 4.15865 12.5093C4.15865 11.9227 4.26656 11.397 4.48238 10.9321C4.70374 10.4673 5.0164 10.0384 5.42037 9.64551C5.82988 9.24707 6.31132 8.8597 6.86471 8.4834C7.39042 8.12923 7.83037 7.79167 8.18453 7.4707C8.5387 7.14974 8.80432 6.80664 8.98141 6.44141C9.16402 6.07617 9.25533 5.6556 9.25533 5.17969C9.25533 4.60417 9.10592 4.10335 8.80709 3.67725C8.50826 3.24561 8.10152 2.91357 7.58688 2.68115C7.07776 2.4432 6.50777 2.32422 5.87691 2.32422C5.3346 2.32422 4.83932 2.41553 4.39108 2.59814C3.94837 2.78076 3.56653 3.06576 3.24557 3.45312C2.9246 3.83496 2.68388 4.32747 2.5234 4.93066C2.41826 5.21289 2.25224 5.43424 2.02535 5.59473C1.804 5.75521 1.54114 5.83545 1.23678 5.83545C0.843875 5.83545 0.539513 5.72201 0.323692 5.49512C0.107872 5.26823 -3.8147e-05 4.97217 -3.8147e-05 4.60693C-3.8147e-05 4.39111 0.0248642 4.16423 0.0746689 3.92627C0.130007 3.68278 0.215782 3.43652 0.331993 3.1875C0.625287 2.52897 1.04863 1.96175 1.60201 1.48584C2.16093 1.00993 2.81393 0.644694 3.561 0.390137C4.30807 0.130046 5.11878 0 5.99313 0C7.1497 0 8.18453 0.20752 9.09762 0.622559C10.0162 1.0376 10.7412 1.62972 11.2724 2.39893C11.8037 3.16813 12.0693 4.08675 12.0693 5.15479C12.0693 5.82438 11.9531 6.43311 11.7207 6.98096C11.4938 7.52881 11.159 8.03516 10.7163 8.5C10.2736 8.96484 9.72848 9.40755 9.08102 9.82812C8.48889 10.221 8.02682 10.5669 7.69479 10.8657C7.36829 11.159 7.1331 11.4606 6.98922 11.7705C6.85087 12.0749 6.77063 12.4456 6.7485 12.8828C6.7485 12.9492 6.74573 13.0184 6.7402 13.0903C6.7402 13.1567 6.73743 13.2259 6.7319 13.2979C6.69869 13.641 6.57695 13.9176 6.36666 14.1279C6.15637 14.3327 5.86031 14.4351 5.47848 14.4351ZM5.50338 20.3784C5.18795 20.3784 4.89742 20.3009 4.6318 20.146C4.37171 19.9966 4.16419 19.7946 4.00924 19.54C3.85429 19.2855 3.77682 19.0005 3.77682 18.6851C3.77682 18.3696 3.85429 18.0846 4.00924 17.8301C4.16419 17.5755 4.37171 17.3708 4.6318 17.2158C4.89742 17.0664 5.18795 16.9917 5.50338 16.9917C5.82434 16.9917 6.11487 17.0664 6.37496 17.2158C6.64059 17.3708 6.85087 17.5755 7.00582 17.8301C7.16077 18.0846 7.23824 18.3696 7.23824 18.6851C7.23824 19.0005 7.16077 19.2855 7.00582 19.54C6.85087 19.7946 6.64059 19.9966 6.37496 20.146C6.11487 20.3009 5.82434 20.3784 5.50338 20.3784Z" fill="currentColor"/>
</svg>
