<svg width="22" height="22" viewBox="0 0 22 22" fill="none" xmlns="http://www.w3.org/2000/svg">
<path d="M0 8.69092C0 7.49007 0.224121 6.3667 0.672363 5.3208C1.12614 4.26937 1.75146 3.34521 2.54834 2.54834C3.34521 1.74593 4.26937 1.12061 5.3208 0.672363C6.37223 0.224121 7.49837 0 8.69922 0C9.90007 0 11.0262 0.224121 12.0776 0.672363C13.1291 1.12061 14.0505 1.74593 14.8418 2.54834C15.6387 3.34521 16.264 4.26937 16.7178 5.3208C17.1715 6.3667 17.3984 7.49007 17.3984 8.69092C17.3984 9.61507 17.2546 10.4977 16.9668 11.3389C16.6846 12.18 16.2944 12.9465 15.7964 13.6382L20.6606 18.5273C20.8156 18.6878 20.9318 18.8649 21.0093 19.0586C21.0868 19.2578 21.1255 19.4626 21.1255 19.6729C21.1255 19.9772 21.0563 20.2539 20.918 20.5029C20.7796 20.752 20.5887 20.9484 20.3452 21.0923C20.1017 21.2362 19.8223 21.3081 19.5068 21.3081C19.291 21.3081 19.0807 21.2694 18.876 21.1919C18.6712 21.1144 18.4941 20.9982 18.3447 20.8433L13.439 15.9292C12.7583 16.3885 12.0168 16.7454 11.2144 17C10.4175 17.2601 9.5791 17.3901 8.69922 17.3901C7.49837 17.3901 6.37223 17.1632 5.3208 16.7095C4.26937 16.2612 3.34521 15.6387 2.54834 14.8418C1.75146 14.0449 1.12614 13.1208 0.672363 12.0693C0.224121 11.0179 0 9.89176 0 8.69092ZM2.21631 8.69092C2.21631 9.58187 2.38509 10.4202 2.72266 11.2061C3.06022 11.9919 3.52507 12.6808 4.11719 13.2729C4.70931 13.8651 5.39551 14.3299 6.17578 14.6675C6.96159 15.005 7.80273 15.1738 8.69922 15.1738C9.59017 15.1738 10.4258 15.005 11.2061 14.6675C11.9919 14.3299 12.6808 13.8651 13.2729 13.2729C13.8706 12.6808 14.3354 11.9919 14.6675 11.2061C15.005 10.4202 15.1738 9.58187 15.1738 8.69092C15.1738 7.79997 15.005 6.96436 14.6675 6.18408C14.3354 5.39827 13.8706 4.70931 13.2729 4.11719C12.6808 3.51953 11.9919 3.05192 11.2061 2.71436C10.4258 2.37679 9.59017 2.20801 8.69922 2.20801C7.80273 2.20801 6.96159 2.37679 6.17578 2.71436C5.39551 3.05192 4.70931 3.51953 4.11719 4.11719C3.52507 4.70931 3.06022 5.39827 2.72266 6.18408C2.38509 6.96436 2.21631 7.79997 2.21631 8.69092Z" fill="currentColor"/>
</svg>
