<svg width="22" height="21" viewBox="0 0 22 21" fill="none" xmlns="http://www.w3.org/2000/svg">
<path d="M4.14122 20.0842C3.9266 19.9183 3.7949 19.7012 3.74612 19.433C3.70222 19.1696 3.74124 18.8574 3.86319 18.4964L5.80941 12.6944L0.834101 9.12384C0.526802 8.90434 0.309742 8.67265 0.182921 8.42876C0.0609768 8.18487 0.0439047 7.93123 0.131704 7.66783C0.214626 7.41419 0.375592 7.22639 0.614602 7.10445C0.85849 6.97763 1.17067 6.91422 1.55113 6.91422H7.66052L9.51894 1.11944C9.63601 0.753613 9.78966 0.475581 9.97989 0.285349C10.175 0.0951163 10.4091 9.59262e-08 10.6823 9.59262e-08C10.9554 9.59262e-08 11.1871 0.0951163 11.3774 0.285349C11.5676 0.475581 11.7212 0.753613 11.8383 1.11944L13.6967 6.91422H19.7988C20.1842 6.91422 20.4963 6.97763 20.7353 7.10445C20.9743 7.22639 21.1378 7.41663 21.2256 7.67515C21.3134 7.93367 21.2963 8.18487 21.1743 8.42876C21.0524 8.67265 20.8353 8.90434 20.5232 9.12384L15.5478 12.6944L17.4941 18.4964C17.616 18.8574 17.6526 19.1696 17.6038 19.433C17.5599 19.7012 17.4307 19.9183 17.216 20.0842C16.9965 20.2451 16.7502 20.3037 16.4771 20.2598C16.2088 20.2207 15.9186 20.0866 15.6064 19.8573L10.6823 16.2356L5.74356 19.8573C5.43138 20.0866 5.14116 20.2207 4.87288 20.2598C4.6046 20.3037 4.36072 20.2451 4.14122 20.0842Z" fill="currentColor"/>
</svg>
